<svg width="20" height="20" viewBox="0 0 40 40" xmlns="http://www.w3.org/2000/svg">
 <g>
  <ellipse ry="18" rx="18" id="svg_1" cy="20" cx="20" stroke-width="1.5" stroke="#005fbf" fill="#007fff"/>
  <ellipse ry="93" id="svg_2" cy="93.75" cx="1.75" stroke-width="1.5" stroke="#000" fill="#fff"/>
  <path id="svg_5" d="m-213.507947,29.895818l0.742506,-0.740012l0.742506,0.740012l-0.371253,0l0,0.743573l-0.742506,0l0,-0.743573l-0.371253,0z" stroke-opacity="null" stroke-width="0" stroke="#ff0000" fill="#ffffff"/>
  <path stroke="#ff0000" id="svg_7" d="m28.736926,9.700307l-3.135192,-1.73397c-0.791019,-0.437057 -1.833324,-0.226701 -2.331748,0.469492l-1.235756,1.730734l5.997755,3.314778l1.236731,-1.729931c0.496532,-0.697022 0.259556,-1.615021 -0.53179,-2.051104l0,0zm-17.375722,15.419012l5.998082,3.314744l9.77588,-13.693967l-6.000937,-3.31561l-9.773025,13.694832l0.000001,0.000001zm-0.916206,4.211506l-0.132476,3.113482l3.130383,-1.456968l2.909015,-1.351543l-5.786542,-3.199862l-0.120378,2.894892l0,0l-0.000001,-0.000001z" fill-opacity="null" stroke-opacity="null" stroke-width="0" fill="#ffffff"/>
 </g>
</svg>